<svg version="1.1" id="Layer_1" xmlns="http://www.w3.org/2000/svg" xmlns:xlink="http://www.w3.org/1999/xlink" x="0px" y="0px"
	 width="100%" viewBox="0 0 342 362" enable-background="new 0 0 342 362" xml:space="preserve">
<path fill="#FEFEFE" opacity="1.000000" stroke="none" 
	d="
M343.000000,312.000000 
	C343.000000,328.965027 343.000000,345.930023 343.000000,363.000000 
	C289.312469,363.000000 235.624893,363.000000 181.344208,362.545776 
	C180.751114,337.653717 180.751114,313.215912 180.751114,288.783600 
	C119.205772,288.560913 77.375443,238.157562 75.064377,188.766159 
	C73.870033,163.240967 80.326202,139.912964 95.675232,119.405899 
	C116.788490,91.197540 145.504883,77.388222 180.706680,76.255196 
	C180.706680,73.629707 180.698837,71.478104 180.707886,69.326569 
	C180.803711,46.551037 180.902222,23.775520 181.000000,1.000000 
	C234.923965,1.000000 288.847931,1.000000 343.000000,1.000000 
	C343.000000,50.353992 343.000000,99.708336 342.531433,149.521576 
	C288.836426,149.980469 235.609985,149.980469 182.497009,149.980469 
	C182.497009,175.330994 182.497009,200.027451 182.497009,225.132202 
	C211.628372,225.132202 240.353699,225.132202 269.393738,225.132202 
	C269.393738,254.309052 269.393738,283.072815 269.393738,312.285614 
	C271.829651,312.285614 273.958527,312.293365 276.087341,312.284485 
	C298.391571,312.191193 320.695770,312.095215 343.000000,312.000000 
z"/>
<path fill="#010101" opacity="1.000000" stroke="none" 
	d="
M180.666656,1.000000 
	C180.902222,23.775520 180.803711,46.551037 180.707886,69.326569 
	C180.698837,71.478104 180.706680,73.629707 180.706680,76.255196 
	C145.504883,77.388222 116.788490,91.197540 95.675232,119.405899 
	C80.326202,139.912964 73.870033,163.240967 75.064377,188.766159 
	C77.375443,238.157562 119.205772,288.560913 180.751114,288.783600 
	C180.751114,313.215912 180.751114,337.653717 180.875549,362.545776 
	C173.312424,363.000000 165.624832,363.000000 157.368530,362.617065 
	C155.184738,361.871887 153.584412,361.414825 151.952469,361.161133 
	C81.266640,350.171448 22.583700,296.842346 4.970998,227.595367 
	C3.728333,222.709641 2.327364,217.864182 1.000001,213.000000 
	C1.000000,192.979111 1.000000,172.958206 1.354750,152.304916 
	C2.088428,150.056656 2.521317,148.451309 2.838525,146.823425 
	C17.037180,73.957336 77.173508,15.682384 150.289963,3.892407 
	C155.220566,3.097350 160.097900,1.971828 165.000000,1.000001 
	C167.370560,1.000000 169.741104,1.000000 172.724625,1.349614 
	C175.225052,1.466152 177.112534,1.233076 179.000000,1.000000 
	C179.444443,1.000000 179.888901,1.000000 180.666656,1.000000 
z"/>
<path fill="#010101" opacity="1.000000" stroke="none" 
	d="
M343.000000,311.531372 
	C320.695770,312.095215 298.391571,312.191193 276.087341,312.284485 
	C273.958527,312.293365 271.829651,312.285614 269.393738,312.285614 
	C269.393738,283.072815 269.393738,254.309052 269.393738,225.132202 
	C240.353699,225.132202 211.628372,225.132202 182.497009,225.132202 
	C182.497009,200.027451 182.497009,175.330994 182.497009,149.980469 
	C235.609985,149.980469 288.836426,149.980469 342.531433,149.990234 
	C343.000000,203.687561 343.000000,257.375122 343.000000,311.531372 
z"/>
<path fill="#FDFDFD" opacity="1.000000" stroke="none" 
	d="
M164.531342,1.000001 
	C160.097900,1.971828 155.220566,3.097350 150.289963,3.892407 
	C77.173508,15.682384 17.037180,73.957336 2.838525,146.823425 
	C2.521317,148.451309 2.088428,150.056656 1.354750,151.836258 
	C1.000000,101.736656 1.000000,51.473312 1.000000,1.000000 
	C55.354046,1.000000 109.708366,1.000000 164.531342,1.000001 
z"/>
<path fill="#FDFDFD" opacity="1.000000" stroke="none" 
	d="
M1.000001,213.468658 
	C2.327364,217.864182 3.728333,222.709641 4.970998,227.595367 
	C22.583700,296.842346 81.266640,350.171448 151.952469,361.161133 
	C153.584412,361.414825 155.184738,361.871887 156.899902,362.617065 
	C105.074425,363.000000 53.148853,363.000000 1.000000,363.000000 
	C1.000000,313.312653 1.000000,263.625000 1.000001,213.468658 
z"/>
<path fill="#626262" opacity="1.000000" stroke="none" 
	d="
M178.571533,1.000000 
	C177.112534,1.233076 175.225052,1.466152 173.168793,1.349614 
	C174.714355,1.000000 176.428711,1.000000 178.571533,1.000000 
z"/>
</svg>